<!--?xml version="1.0" encoding="utf-8"?-->
<!-- Generator: Adobe Illustrator 18.1.1, SVG Export Plug-In . SVG Version: 6.00 Build 0)  -->

<svg version="1.1" id="_x31_0" xmlns="http://www.w3.org/2000/svg" xmlns:xlink="http://www.w3.org/1999/xlink" x="0px" y="0px" viewBox="0 0 512 512" style="width: 48px; height: 48px; opacity: 1;" xml:space="preserve">
<style type="text/css">
	.st0{fill:#374149;}
</style>
<g>
	<path class="st0" d="M256,0C114.617,0,0,114.617,0,256c0,141.386,114.617,256,256,256c141.386,0,256-114.614,256-256
		C512,114.617,397.386,0,256,0z M206.062,441.328c6.855-12.266,14.707-28.086,18.266-41.711c1.774-6.934,7.668-29.394,10.774-41.234
		c9.844,11.05,27.836,18.754,45.41,18.754c62.613,0,109.828-56.282,109.828-130.918c0-69.507-55.786-121.926-129.766-121.926
		c-95.446,0-138.914,66.114-138.914,127.535c0,30.629,16.313,69.89,43.618,82.582c1.824,0.847,3.418,1.258,4.867,1.258
		c2.054,0,5.695-0.84,6.969-6.363c0.726-2.817,4.191-16.824,5.695-23.27c0.828-3.336,0.144-6.274-2.086-8.992
		c-8.5-10.301-14.438-28.57-14.438-44.422c0-41.347,31.157-85.289,88.891-85.289c48.222,0,81.906,32.766,81.906,79.676
		c0,52.254-25.547,90.179-60.746,90.179c-9.054,0-17.195-3.73-22.34-10.234c-4.871-6.16-6.484-14.09-4.535-22.316
		c2.062-8.606,4.824-17.547,7.5-26.191c4.93-15.942,9.586-31,9.586-42.809c0-19.722-11.582-32.461-29.508-32.461
		c-22.805,0-40.668,23.426-40.668,53.332c0,15.664,4.34,27.086,5.93,30.746c-2.465,10.442-20.274,85.794-23.684,100.637
		c-2.202,9.246-2.957,21.481-2.461,36.114c0.051,2.195,0.059,4.293,0.161,6.61C110.121,400.282,64,333.45,64,256
		c0-105.867,86.133-192,192-192c105.871,0,192,86.133,192,192c0,105.871-86.129,192-192,192c-15.516,0-30.562-1.969-45.019-5.469
		C209.344,442.121,207.691,441.789,206.062,441.328z" style="fill: rgb(255, 255, 255);"></path>
</g>
</svg>
